<svg xmlns="http://www.w3.org/2000/svg" xmlns:xlink="http://www.w3.org/1999/xlink" version="1.1" width="1080" height="1080" viewBox="0 0 1080 1080" xml:space="preserve">
<desc>Created with Fabric.js 5.2.4</desc>
<defs>
</defs>
<g transform="matrix(1 0 0 1 540 540)" id="a3a920a7-f843-445a-b42e-a732fba4d5f4"  >
</g>
<g transform="matrix(1 0 0 1 540 540)" id="6f0ff759-ebe6-487d-9bd7-013d0d4171b8"  >
<rect style="stroke: none; stroke-width: 1; stroke-dasharray: none; stroke-linecap: butt; stroke-dashoffset: 0; stroke-linejoin: miter; stroke-miterlimit: 4; fill: rgb(255,255,255); fill-rule: nonzero; opacity: 1; visibility: hidden;" vector-effect="non-scaling-stroke"  x="-540" y="-540" rx="0" ry="0" width="1080" height="1080" />
</g>
<g transform="matrix(45 0 0 45 540 540)"  >
<path style="stroke: rgb(0,0,0); stroke-opacity: 0; stroke-width: 1; stroke-dasharray: none; stroke-linecap: butt; stroke-dashoffset: 0; stroke-linejoin: miter; stroke-miterlimit: 4; fill: rgb(158,158,158); fill-rule: nonzero; opacity: 0.8;"  transform=" translate(-12, -12)" d="M 12 24 C 5.373 24 0 18.627 0 12 C 0 5.373000000000001 5.373 0 12 0 C 18.627 0 24 5.373 24 12 C 23.992 18.624 18.624 23.992 12.001 24 z M 12 2.3999999999999986 C 6.698 2.3999999999999986 2.4000000000000004 6.697999999999999 2.4000000000000004 11.999999999999998 C 2.4000000000000004 17.302 6.698 21.599999999999998 12 21.599999999999998 C 17.302 21.599999999999998 21.6 17.302 21.6 11.999999999999998 C 21.594 6.700999999999998 17.299 2.405999999999999 12.001000000000001 2.3999999999999986 L 12 2.3999999999999986 z" stroke-linecap="round" />
</g>
<g transform="matrix(0 0 0 0 0 0)"  >
<g style=""   >
</g>
</g>
<g transform="matrix(0 0 0 0 0 0)"  >
<g style=""   >
</g>
</g>
<g transform="matrix(0 0 0 0 0 0)"  >
<g style=""   >
</g>
</g>
<g transform="matrix(NaN NaN NaN NaN 0 0)"  >
<g style=""   >
</g>
</g>
<g transform="matrix(45 0 0 45 540 540)"  >
<path style="stroke: none; stroke-width: 1; stroke-dasharray: none; stroke-linecap: butt; stroke-dashoffset: 0; stroke-linejoin: miter; stroke-miterlimit: 4; fill: rgb(158,158,158); fill-rule: nonzero; opacity: 1;"  transform=" translate(-12, -12)" d="M 12 24 C 5.373 24 0 18.627 0 12 C 0 5.373000000000001 5.373 0 12 0 C 18.627 0 24 5.373 24 12 C 23.992 18.624 18.624 23.992 12.001 24 z M 12 2.3999999999999986 C 6.698 2.3999999999999986 2.4000000000000004 6.697999999999999 2.4000000000000004 11.999999999999998 C 2.4000000000000004 17.302 6.698 21.599999999999998 12 21.599999999999998 C 17.302 21.599999999999998 21.6 17.302 21.6 11.999999999999998 C 21.594 6.700999999999998 17.299 2.405999999999999 12.001000000000001 2.3999999999999986 L 12 2.3999999999999986 z" stroke-linecap="round" />
</g>
<g transform="matrix(NaN NaN NaN NaN 0 0)"  >
<g style=""   >
</g>
</g>
<g transform="matrix(NaN NaN NaN NaN 0 0)"  >
<g style=""   >
</g>
</g>
</svg>