<svg width="48" height="48" viewBox="0 0 48 48" fill="none" xmlns="http://www.w3.org/2000/svg">
<g opacity="0.3">
<rect x="4" y="4" width="40" height="40" rx="20" fill="currentColor"/>
</g>
<path d="M23.6099 24.8368V12.1838C23.5306 11.9863 23.2369 11.94 23.115 12.1515L17.7769 21.4503L23.6099 24.8368ZM24.3925 24.8368L30.2244 21.4503L24.8774 12.1381C24.76 11.933 24.4811 11.9714 24.392 12.1545L24.3925 24.8368ZM35.7012 31.8564L35.723 31.8574C35.9172 31.8574 36.0762 31.6415 35.9613 31.4424L30.6152 22.1321L24.7838 25.518L35.7012 31.8564ZM12.0391 31.4424C11.9237 31.6415 12.0822 31.8574 12.2763 31.8574C12.2846 31.8574 12.2929 31.8571 12.3011 31.8564L23.2181 25.518L17.3841 22.1321L12.0391 31.4424ZM35.1212 33C35.3629 33 35.4689 32.7253 35.3421 32.5571L24.0007 25.9724L12.6577 32.5591C12.5324 32.7273 12.6384 33 12.8806 33H35.1212Z" fill="currentColor"/>
</svg>
