<svg viewBox="0 0 25 24" xmlns="http://www.w3.org/2000/svg">
  <path d="M19.3333 3H5.33331C4.22831 3 3.33331 3.895 3.33331 5V19C3.33331 20.105 4.22831 21 5.33331 21H19.3333C20.4383 21 21.3333 20.105 21.3333 19V5C21.3333 3.895 20.4383 3 19.3333 3ZM9.33331 17H6.81031V10H9.33331V17ZM8.02731 8.717C7.25631 8.717 6.74131 8.203 6.74131 7.517C6.74131 6.831 7.25531 6.317 8.11231 6.317C8.88331 6.317 9.39831 6.831 9.39831 7.517C9.39831 8.203 8.88431 8.717 8.02731 8.717ZM18.3333 17H15.8913V13.174C15.8913 12.116 15.2403 11.872 14.9963 11.872C14.7523 11.872 13.9383 12.035 13.9383 13.174C13.9383 13.337 13.9383 17 13.9383 17H11.4153V10H13.9383V10.977C14.2633 10.407 14.9143 10 16.1353 10C17.3563 10 18.3333 10.977 18.3333 13.174V17Z" fill="currentColor"/>
</svg>