<svg viewBox="0 0 25 24" fill="none" xmlns="http://www.w3.org/2000/svg">
<path d="M22.3333 3.99902C21.5533 4.46202 19.9883 5.09302 19.0683 5.27502C19.0413 5.28202 19.0193 5.29102 18.9933 5.29802C18.1803 4.49602 17.0663 3.99902 15.8333 3.99902C13.3483 3.99902 11.3333 6.01402 11.3333 8.49902C11.3333 8.63002 11.3223 8.87102 11.3333 8.99902C7.98031 8.99902 5.42831 7.24302 3.59831 4.99902C3.39931 5.49902 3.31231 6.28902 3.31231 7.03102C3.31231 8.43202 4.40731 9.80802 6.11231 10.661C5.79831 10.742 5.45231 10.8 5.09231 10.8C4.51131 10.8 3.89631 10.647 3.33331 10.183C3.33331 10.2 3.33331 10.216 3.33331 10.234C3.33331 12.192 5.41131 13.525 7.25931 13.896C6.88431 14.117 6.12831 14.139 5.75931 14.139C5.49931 14.139 4.57931 14.02 4.33331 13.974C4.84731 15.579 6.70131 16.481 8.46831 16.513C7.08631 17.597 6.12731 17.999 3.29731 17.999H2.33331C4.12131 19.145 6.39831 20 8.68031 20C16.1103 20 20.3333 14.337 20.3333 8.99902C20.3333 8.91302 20.3313 8.73302 20.3283 8.55202C20.3283 8.53402 20.3333 8.51702 20.3333 8.49902C20.3333 8.47202 20.3253 8.44602 20.3253 8.41902C20.3223 8.28302 20.3193 8.15602 20.3163 8.09002C21.1063 7.52002 21.7913 6.80902 22.3333 5.99902C21.6083 6.32102 20.8303 6.53702 20.0133 6.63502C20.8473 6.13502 22.0323 4.94302 22.3333 3.99902Z" fill="currentColor"/>
</svg>
